<svg width="512" height="512" viewBox="0 0 512 512" fill="none" xmlns="http://www.w3.org/2000/svg">
<g id="internet 1">
<g id="Group">
<g id="Group_2">
<path id="circle" d="M111.012 177.224C147.581 177.224 177.225 147.579 177.225 111.01C177.225 74.4416 147.581 44.7967 111.012 44.7967C74.4443 44.7967 44.8 74.4416 44.8 111.01C44.8 147.579 74.4443 177.224 111.012 177.224Z" fill="#EFF9FD"/>
</g>
<path id="world" d="M136.29 63.0607C132.358 55.0483 127.577 49.1861 122.298 45.7585C118.63 45.1284 114.86 44.7964 111.012 44.7964C107.164 44.7964 103.394 45.1284 99.7251 45.7585C94.4465 49.1861 89.6656 55.0487 85.7342 63.0603C79.7234 75.3086 76.2891 91.3534 75.9801 108.477H44.8527C44.8211 109.318 44.7996 110.161 44.7996 111.01C44.7996 111.879 44.8217 112.743 44.8547 113.604H75.9812C76.2972 130.705 79.7306 146.726 85.7342 158.96C89.6659 166.971 94.4465 172.834 99.7255 176.261C103.394 176.891 107.164 177.223 111.012 177.223C114.86 177.223 118.63 176.891 122.298 176.261C127.577 172.834 132.358 166.971 136.29 158.959C142.294 146.726 145.727 130.705 146.043 113.604H177.17C177.203 112.743 177.225 111.879 177.225 111.009C177.225 110.161 177.203 109.317 177.172 108.477H146.044C145.735 91.3537 142.301 75.309 136.29 63.0607V63.0607ZM108.436 174.414C101.727 173.15 95.3794 166.975 90.3375 156.702C84.6687 145.15 81.4214 129.93 81.1094 113.605H108.436V174.414ZM108.436 108.478H81.1084C81.4132 92.1294 84.6615 76.8859 90.3375 65.32C95.3794 55.0463 101.727 48.8711 108.436 47.6069V108.478ZM131.687 156.701C126.639 166.988 120.282 173.165 113.564 174.419V113.605H140.916C140.604 129.93 137.356 145.15 131.687 156.701ZM113.563 108.478V47.6021C120.282 48.8555 126.639 55.033 131.687 65.3197C137.363 76.8859 140.611 92.1294 140.916 108.477H113.563V108.478Z" fill="#77858C"/>
<g id="Group_3">
<path id="Vector" d="M182.779 39.2428C176.456 32.9203 166.016 37.5271 162.585 39.0403C156.609 41.677 149.37 46.032 141.046 51.9908C145.449 54.2352 149.565 56.9586 153.331 60.091C163.265 53.3663 168.971 50.9736 171.889 50.1319C170.935 53.4306 167.999 60.2961 159.039 72.8445C149.116 86.7421 134.905 103.142 119.025 119.022C103.144 134.903 86.7453 149.114 72.8479 159.037C60.2994 167.997 53.4347 170.933 50.1361 171.887C50.9781 168.971 53.3674 163.269 60.0936 153.33C56.9599 149.565 54.2373 145.446 51.9916 141.044C45.9036 149.55 41.4966 156.914 38.8818 162.954C37.4277 166.313 33.0023 176.535 39.2458 182.779C41.3928 184.925 44.2046 186 47.6533 186C50.3103 186 53.3459 185.362 56.7449 184.085C62.1501 182.054 68.8318 178.352 76.6041 173.082C92.0191 162.632 110.518 146.867 128.693 128.692C146.867 110.516 162.632 92.0175 173.083 76.6021C178.352 68.8296 182.054 62.1479 184.085 56.7426C187.019 48.9317 186.58 43.0443 182.779 39.2428V39.2428Z" fill="#040D14"/>
</g>
</g>
</g>
</svg>
